<mxfile modified="2023-10-24T12:30:51.347Z" host="app.diagrams.net" agent="Mozilla/5.0 (Windows NT 10.0; Win64; x64) AppleWebKit/537.36 (KHTML, like Gecko) Chrome/118.0.0.0 Safari/537.36" etag="Pzlw5mdC1yWe1n2b_v3m" version="22.0.6" type="github">
  <diagram id="l8hXMBHkgcEJcSW0mbfh" name="Page-1">
    <mxGraphModel dx="5827" dy="3121" grid="1" gridSize="10" guides="1" tooltips="1" connect="1" arrows="1" fold="1" page="1" pageScale="1" pageWidth="1169" pageHeight="827" math="0" shadow="0">
      <root>
        <mxCell id="0" />
        <mxCell id="1" parent="0" />
        <mxCell id="rtz3GXls6wWq0Uho-QJ0-137" value="" style="group;direction=south;flipV=1;flipH=1;fillColor=#fad7ac;strokeColor=#b46504;container=0;rounded=1;" vertex="1" connectable="0" parent="1">
          <mxGeometry x="-480" y="590" width="580" height="380" as="geometry" />
        </mxCell>
        <mxCell id="rtz3GXls6wWq0Uho-QJ0-102" value="" style="group;direction=south;flipV=1;flipH=1;fillColor=#fad7ac;strokeColor=#b46504;container=0;rounded=1;" vertex="1" connectable="0" parent="1">
          <mxGeometry x="-40" y="990" width="580" height="380" as="geometry" />
        </mxCell>
        <mxCell id="rtz3GXls6wWq0Uho-QJ0-136" value="" style="group;direction=south;flipV=1;flipH=1;fillColor=#fad7ac;strokeColor=#b46504;container=0;rounded=1;" vertex="1" connectable="0" parent="1">
          <mxGeometry x="780" y="942.23" width="580" height="380" as="geometry" />
        </mxCell>
        <mxCell id="rtz3GXls6wWq0Uho-QJ0-138" value="" style="group;direction=south;flipV=1;flipH=1;fillColor=#fad7ac;strokeColor=#b46504;container=0;rounded=1;" vertex="1" connectable="0" parent="1">
          <mxGeometry x="489.99999999999994" y="90" width="580" height="380" as="geometry" />
        </mxCell>
        <mxCell id="rtz3GXls6wWq0Uho-QJ0-139" value="" style="group;direction=south;flipV=1;flipH=1;fillColor=#fad7ac;strokeColor=#b46504;container=0;rounded=1;" vertex="1" connectable="0" parent="1">
          <mxGeometry x="-560" y="103.22000000000003" width="580" height="380" as="geometry" />
        </mxCell>
        <mxCell id="rtz3GXls6wWq0Uho-QJ0-167" value="&lt;div style=&quot;&quot;&gt;&lt;b style=&quot;font-size: 45px; background-color: initial;&quot;&gt;Worl Trade Center&amp;nbsp;&lt;/b&gt;&lt;/div&gt;" style="shape=cube;whiteSpace=wrap;html=1;boundedLbl=1;backgroundOutline=1;darkOpacity=0.05;darkOpacity2=0.1;rounded=1;sketch=1;hachureGap=4;jiggle=2;curveFitting=1;fontFamily=Architects Daughter;fontSource=https%3A%2F%2Ffonts.googleapis.com%2Fcss%3Ffamily%3DArchitects%2BDaughter;fontSize=20;fillColor=#f0a30a;fontColor=#000000;strokeColor=#000000;strokeWidth=1;align=right;movable=0;resizable=0;rotatable=0;deletable=0;editable=0;locked=1;connectable=0;" vertex="1" parent="1">
          <mxGeometry x="-680" y="-188.33" width="2370" height="1658.33" as="geometry" />
        </mxCell>
        <mxCell id="rtz3GXls6wWq0Uho-QJ0-142" value="" style="ellipse;whiteSpace=wrap;html=1;aspect=fixed;rounded=1;sketch=1;hachureGap=4;jiggle=2;curveFitting=1;fontFamily=Architects Daughter;fontSource=https%3A%2F%2Ffonts.googleapis.com%2Fcss%3Ffamily%3DArchitects%2BDaughter;fontSize=20;fillColor=#FF66B3;" vertex="1" parent="1">
          <mxGeometry x="146.75" y="420" width="470" height="470" as="geometry" />
        </mxCell>
        <mxCell id="8--HhbSZYtI3ddgJnD71-26" style="edgeStyle=none;rounded=0;orthogonalLoop=1;jettySize=auto;html=1;sourcePerimeterSpacing=5;endArrow=none;endFill=0;targetPerimeterSpacing=5;" parent="1" edge="1">
          <mxGeometry relative="1" as="geometry">
            <mxPoint x="620" y="280" as="sourcePoint" />
            <mxPoint x="580" y="230" as="targetPoint" />
          </mxGeometry>
        </mxCell>
        <mxCell id="8--HhbSZYtI3ddgJnD71-27" style="edgeStyle=none;rounded=0;orthogonalLoop=1;jettySize=auto;html=1;sourcePerimeterSpacing=5;endArrow=none;endFill=0;targetPerimeterSpacing=5;" parent="1" edge="1">
          <mxGeometry relative="1" as="geometry">
            <mxPoint x="655" y="280" as="sourcePoint" />
            <mxPoint x="658" y="220" as="targetPoint" />
          </mxGeometry>
        </mxCell>
        <mxCell id="8--HhbSZYtI3ddgJnD71-28" style="edgeStyle=none;rounded=0;orthogonalLoop=1;jettySize=auto;html=1;sourcePerimeterSpacing=5;endArrow=none;endFill=0;targetPerimeterSpacing=5;" parent="1" edge="1">
          <mxGeometry relative="1" as="geometry">
            <mxPoint x="696.0006751824817" y="290" as="sourcePoint" />
            <mxPoint x="740" y="250" as="targetPoint" />
          </mxGeometry>
        </mxCell>
        <mxCell id="8--HhbSZYtI3ddgJnD71-29" style="edgeStyle=none;rounded=0;orthogonalLoop=1;jettySize=auto;html=1;sourcePerimeterSpacing=5;endArrow=none;endFill=0;targetPerimeterSpacing=5;" parent="1" edge="1">
          <mxGeometry relative="1" as="geometry">
            <mxPoint x="714" y="321.1899677765844" as="sourcePoint" />
            <mxPoint x="790" y="300" as="targetPoint" />
          </mxGeometry>
        </mxCell>
        <mxCell id="8--HhbSZYtI3ddgJnD71-30" style="edgeStyle=none;rounded=0;orthogonalLoop=1;jettySize=auto;html=1;sourcePerimeterSpacing=5;endArrow=none;endFill=0;targetPerimeterSpacing=5;" parent="1" edge="1">
          <mxGeometry relative="1" as="geometry">
            <mxPoint x="700" y="347.9998210290829" as="sourcePoint" />
            <mxPoint x="760" y="370" as="targetPoint" />
          </mxGeometry>
        </mxCell>
        <mxCell id="rtz3GXls6wWq0Uho-QJ0-6" value="" style="shape=image;verticalLabelPosition=bottom;verticalAlign=top;imageAspect=0;aspect=fixed;image=data:image/svg+xml,PHN2ZyB4bWxucz0iaHR0cDovL3d3dy53My5vcmcvMjAwMC9zdmciIHZlcnNpb249IjEiIHZpZXdCb3g9IjAgMCA0OCA0OCIgZW5hYmxlLWJhY2tncm91bmQ9Im5ldyAwIDAgNDggNDgiPiYjeGE7ICAgIDxwYXRoIGZpbGw9IiMzNzQ3NEYiIGQ9Ik0xMiw0MFY4YzAtMi4yLDEuOC00LDQtNGgxNmMyLjIsMCw0LDEuOCw0LDR2MzJjMCwyLjItMS44LDQtNCw0SDE2QzEzLjgsNDQsMTIsNDIuMiwxMiw0MHoiLz4mI3hhOyAgICA8cGF0aCBmaWxsPSIjQkJERUZCIiBkPSJNMzIsN0gxNmMtMC42LDAtMSwwLjQtMSwxdjI5YzAsMC42LDAuNCwxLDEsMWgxNmMwLjYsMCwxLTAuNCwxLTFWOEMzMyw3LjQsMzIuNiw3LDMyLDd6Ii8+JiN4YTsgICAgPHJlY3QgeD0iMjEiIHk9IjQwIiBmaWxsPSIjNzg5MDlDIiB3aWR0aD0iNiIgaGVpZ2h0PSIyIi8+JiN4YTs8L3N2Zz4=" vertex="1" parent="1">
          <mxGeometry x="1290" y="140" width="48" height="48" as="geometry" />
        </mxCell>
        <mxCell id="rtz3GXls6wWq0Uho-QJ0-7" value="" style="shape=image;verticalLabelPosition=bottom;verticalAlign=top;imageAspect=0;aspect=fixed;image=data:image/svg+xml,PHN2ZyB4bWxucz0iaHR0cDovL3d3dy53My5vcmcvMjAwMC9zdmciIHZlcnNpb249IjEiIHZpZXdCb3g9IjAgMCA0OCA0OCIgZW5hYmxlLWJhY2tncm91bmQ9Im5ldyAwIDAgNDggNDgiPiYjeGE7ICAgIDxwYXRoIGZpbGw9IiMzNzQ3NEYiIGQ9Ik0xMiw0MFY4YzAtMi4yLDEuOC00LDQtNGgxNmMyLjIsMCw0LDEuOCw0LDR2MzJjMCwyLjItMS44LDQtNCw0SDE2QzEzLjgsNDQsMTIsNDIuMiwxMiw0MHoiLz4mI3hhOyAgICA8cGF0aCBmaWxsPSIjQkJERUZCIiBkPSJNMzIsN0gxNmMtMC42LDAtMSwwLjQtMSwxdjI5YzAsMC42LDAuNCwxLDEsMWgxNmMwLjYsMCwxLTAuNCwxLTFWOEMzMyw3LjQsMzIuNiw3LDMyLDd6Ii8+JiN4YTsgICAgPHJlY3QgeD0iMjEiIHk9IjQwIiBmaWxsPSIjNzg5MDlDIiB3aWR0aD0iNiIgaGVpZ2h0PSIyIi8+JiN4YTs8L3N2Zz4=" vertex="1" parent="1">
          <mxGeometry x="1380" y="210" width="48" height="48" as="geometry" />
        </mxCell>
        <mxCell id="rtz3GXls6wWq0Uho-QJ0-8" value="" style="verticalLabelPosition=bottom;sketch=0;aspect=fixed;html=1;verticalAlign=top;strokeColor=none;align=center;outlineConnect=0;shape=mxgraph.citrix.laptop_1;" vertex="1" parent="1">
          <mxGeometry x="900" y="410" width="59.09" height="50" as="geometry" />
        </mxCell>
        <mxCell id="rtz3GXls6wWq0Uho-QJ0-14" value="" style="verticalLabelPosition=bottom;sketch=0;aspect=fixed;html=1;verticalAlign=top;strokeColor=none;align=center;outlineConnect=0;shape=mxgraph.citrix.desktop;" vertex="1" parent="1">
          <mxGeometry x="760" y="180" width="54.49" height="60" as="geometry" />
        </mxCell>
        <mxCell id="rtz3GXls6wWq0Uho-QJ0-15" value="" style="verticalLabelPosition=bottom;sketch=0;aspect=fixed;html=1;verticalAlign=top;strokeColor=none;align=center;outlineConnect=0;shape=mxgraph.citrix.desktop;" vertex="1" parent="1">
          <mxGeometry x="535" y="170" width="49.95" height="55" as="geometry" />
        </mxCell>
        <mxCell id="rtz3GXls6wWq0Uho-QJ0-16" value="" style="verticalLabelPosition=bottom;sketch=0;aspect=fixed;html=1;verticalAlign=top;strokeColor=none;align=center;outlineConnect=0;shape=mxgraph.citrix.desktop;" vertex="1" parent="1">
          <mxGeometry x="645.75" y="150" width="54.49" height="60" as="geometry" />
        </mxCell>
        <mxCell id="rtz3GXls6wWq0Uho-QJ0-18" value="" style="verticalLabelPosition=bottom;sketch=0;aspect=fixed;html=1;verticalAlign=top;strokeColor=none;align=center;outlineConnect=0;shape=mxgraph.citrix.router;" vertex="1" parent="1">
          <mxGeometry x="257.26" y="540" width="55" height="36.5" as="geometry" />
        </mxCell>
        <mxCell id="rtz3GXls6wWq0Uho-QJ0-19" value="" style="verticalLabelPosition=bottom;sketch=0;aspect=fixed;html=1;verticalAlign=top;strokeColor=none;align=center;outlineConnect=0;shape=mxgraph.citrix.switch;" vertex="1" parent="1">
          <mxGeometry x="616" y="302" width="84.24" height="38" as="geometry" />
        </mxCell>
        <mxCell id="rtz3GXls6wWq0Uho-QJ0-21" value="" style="verticalLabelPosition=bottom;sketch=0;aspect=fixed;html=1;verticalAlign=top;strokeColor=none;align=center;outlineConnect=0;shape=mxgraph.citrix.printer;" vertex="1" parent="1">
          <mxGeometry x="805" y="252" width="50" height="50" as="geometry" />
        </mxCell>
        <mxCell id="rtz3GXls6wWq0Uho-QJ0-23" value="" style="verticalLabelPosition=bottom;sketch=0;aspect=fixed;html=1;verticalAlign=top;strokeColor=none;align=center;outlineConnect=0;shape=mxgraph.citrix.tablet_2;" vertex="1" parent="1">
          <mxGeometry x="980" y="310" width="47.67" height="50" as="geometry" />
        </mxCell>
        <mxCell id="rtz3GXls6wWq0Uho-QJ0-24" style="edgeStyle=none;rounded=0;orthogonalLoop=1;jettySize=auto;html=1;sourcePerimeterSpacing=5;endArrow=none;endFill=0;targetPerimeterSpacing=5;dashed=1;dashPattern=12 12;strokeWidth=2;" edge="1" parent="1">
          <mxGeometry relative="1" as="geometry">
            <mxPoint x="840.09" y="367.9998210290829" as="sourcePoint" />
            <mxPoint x="979.09" y="340" as="targetPoint" />
          </mxGeometry>
        </mxCell>
        <mxCell id="rtz3GXls6wWq0Uho-QJ0-25" style="edgeStyle=none;rounded=0;orthogonalLoop=1;jettySize=auto;html=1;sourcePerimeterSpacing=5;endArrow=none;endFill=0;targetPerimeterSpacing=5;strokeWidth=2;dashed=1;dashPattern=12 12;" edge="1" parent="1">
          <mxGeometry relative="1" as="geometry">
            <mxPoint x="830.59" y="393.9998210290829" as="sourcePoint" />
            <mxPoint x="895.59" y="432.5497052984301" as="targetPoint" />
          </mxGeometry>
        </mxCell>
        <mxCell id="rtz3GXls6wWq0Uho-QJ0-28" value="" style="shape=mxgraph.cisco.misc.access_point;sketch=0;html=1;pointerEvents=1;dashed=0;fillColor=#036897;strokeColor=#ffffff;strokeWidth=2;verticalLabelPosition=bottom;verticalAlign=top;align=center;outlineConnect=0;" vertex="1" parent="1">
          <mxGeometry x="760" y="360" width="70.59" height="32" as="geometry" />
        </mxCell>
        <mxCell id="rtz3GXls6wWq0Uho-QJ0-47" value="" style="group;direction=south;flipV=1;" vertex="1" connectable="0" parent="1">
          <mxGeometry x="805.0000000000001" y="800" width="316.75" height="492.67" as="geometry" />
        </mxCell>
        <mxCell id="rtz3GXls6wWq0Uho-QJ0-31" style="edgeStyle=none;rounded=0;orthogonalLoop=1;jettySize=auto;html=1;sourcePerimeterSpacing=5;endArrow=none;endFill=0;targetPerimeterSpacing=5;" edge="1" parent="rtz3GXls6wWq0Uho-QJ0-47">
          <mxGeometry relative="1" as="geometry">
            <mxPoint x="85.00000000000001" y="359.83935483870977" as="sourcePoint" />
            <mxPoint x="45.00000000000001" y="410.9280645161291" as="targetPoint" />
          </mxGeometry>
        </mxCell>
        <mxCell id="rtz3GXls6wWq0Uho-QJ0-32" style="edgeStyle=none;rounded=0;orthogonalLoop=1;jettySize=auto;html=1;sourcePerimeterSpacing=5;endArrow=none;endFill=0;targetPerimeterSpacing=5;" edge="1" parent="rtz3GXls6wWq0Uho-QJ0-47">
          <mxGeometry relative="1" as="geometry">
            <mxPoint x="120.00000000000003" y="359.83935483870977" as="sourcePoint" />
            <mxPoint x="122.99999999999997" y="421.145806451613" as="targetPoint" />
          </mxGeometry>
        </mxCell>
        <mxCell id="rtz3GXls6wWq0Uho-QJ0-33" style="edgeStyle=none;rounded=0;orthogonalLoop=1;jettySize=auto;html=1;sourcePerimeterSpacing=5;endArrow=none;endFill=0;targetPerimeterSpacing=5;" edge="1" parent="rtz3GXls6wWq0Uho-QJ0-47">
          <mxGeometry relative="1" as="geometry">
            <mxPoint x="161.00067518248167" y="349.6216129032259" as="sourcePoint" />
            <mxPoint x="205" y="390.49258064516135" as="targetPoint" />
          </mxGeometry>
        </mxCell>
        <mxCell id="rtz3GXls6wWq0Uho-QJ0-34" style="edgeStyle=none;rounded=0;orthogonalLoop=1;jettySize=auto;html=1;sourcePerimeterSpacing=5;endArrow=none;endFill=0;targetPerimeterSpacing=5;" edge="1" parent="rtz3GXls6wWq0Uho-QJ0-47">
          <mxGeometry relative="1" as="geometry">
            <mxPoint x="178.99999999999997" y="317.7525087315062" as="sourcePoint" />
            <mxPoint x="255" y="339.403870967742" as="targetPoint" />
          </mxGeometry>
        </mxCell>
        <mxCell id="rtz3GXls6wWq0Uho-QJ0-35" style="edgeStyle=none;rounded=0;orthogonalLoop=1;jettySize=auto;html=1;sourcePerimeterSpacing=5;endArrow=none;endFill=0;targetPerimeterSpacing=5;" edge="1" parent="rtz3GXls6wWq0Uho-QJ0-47">
          <mxGeometry relative="1" as="geometry">
            <mxPoint x="164.99999999999997" y="290.3588925452839" as="sourcePoint" />
            <mxPoint x="225" y="267.87967741935495" as="targetPoint" />
          </mxGeometry>
        </mxCell>
        <mxCell id="rtz3GXls6wWq0Uho-QJ0-36" value="" style="verticalLabelPosition=bottom;sketch=0;aspect=fixed;html=1;verticalAlign=top;strokeColor=none;align=center;outlineConnect=0;shape=mxgraph.citrix.laptop_1;direction=east;" vertex="1" parent="rtz3GXls6wWq0Uho-QJ0-47">
          <mxGeometry x="365" y="177.00870967741946" width="59.09000000000002" height="50.000000000000014" as="geometry" />
        </mxCell>
        <mxCell id="rtz3GXls6wWq0Uho-QJ0-37" value="" style="verticalLabelPosition=bottom;sketch=0;aspect=fixed;html=1;verticalAlign=top;strokeColor=none;align=center;outlineConnect=0;shape=mxgraph.citrix.desktop;direction=east;" vertex="1" parent="rtz3GXls6wWq0Uho-QJ0-47">
          <mxGeometry x="225" y="402.01677419354843" width="54.490000000000016" height="60.000000000000014" as="geometry" />
        </mxCell>
        <mxCell id="rtz3GXls6wWq0Uho-QJ0-38" value="" style="verticalLabelPosition=bottom;sketch=0;aspect=fixed;html=1;verticalAlign=top;strokeColor=none;align=center;outlineConnect=0;shape=mxgraph.citrix.desktop;direction=east;" vertex="1" parent="rtz3GXls6wWq0Uho-QJ0-47">
          <mxGeometry y="417.23451612903233" width="49.95000000000002" height="55.000000000000014" as="geometry" />
        </mxCell>
        <mxCell id="rtz3GXls6wWq0Uho-QJ0-39" value="" style="verticalLabelPosition=bottom;sketch=0;aspect=fixed;html=1;verticalAlign=top;strokeColor=none;align=center;outlineConnect=0;shape=mxgraph.citrix.desktop;direction=east;" vertex="1" parent="rtz3GXls6wWq0Uho-QJ0-47">
          <mxGeometry x="110.75000000000003" y="432.6700000000001" width="54.490000000000016" height="60.000000000000014" as="geometry" />
        </mxCell>
        <mxCell id="rtz3GXls6wWq0Uho-QJ0-40" value="" style="verticalLabelPosition=bottom;sketch=0;aspect=fixed;html=1;verticalAlign=top;strokeColor=none;align=center;outlineConnect=0;shape=mxgraph.citrix.switch;direction=east;" vertex="1" parent="rtz3GXls6wWq0Uho-QJ0-47">
          <mxGeometry x="70.25000000000001" y="300.4503225806452" width="84.24000000000001" height="38.00000000000001" as="geometry" />
        </mxCell>
        <mxCell id="rtz3GXls6wWq0Uho-QJ0-41" value="" style="verticalLabelPosition=bottom;sketch=0;aspect=fixed;html=1;verticalAlign=top;strokeColor=none;align=center;outlineConnect=0;shape=mxgraph.citrix.printer;direction=east;" vertex="1" parent="rtz3GXls6wWq0Uho-QJ0-47">
          <mxGeometry x="270" y="338.44903225806456" width="50.000000000000014" height="50.000000000000014" as="geometry" />
        </mxCell>
        <mxCell id="rtz3GXls6wWq0Uho-QJ0-42" value="" style="verticalLabelPosition=bottom;sketch=0;aspect=fixed;html=1;verticalAlign=top;strokeColor=none;align=center;outlineConnect=0;shape=mxgraph.citrix.tablet_2;direction=east;" vertex="1" parent="rtz3GXls6wWq0Uho-QJ0-47">
          <mxGeometry x="445.00000000000006" y="279.1861290322581" width="47.67000000000001" height="50.000000000000014" as="geometry" />
        </mxCell>
        <mxCell id="rtz3GXls6wWq0Uho-QJ0-43" style="edgeStyle=none;rounded=0;orthogonalLoop=1;jettySize=auto;html=1;sourcePerimeterSpacing=5;endArrow=none;endFill=0;targetPerimeterSpacing=5;dashed=1;dashPattern=12 12;strokeWidth=2;" edge="1" parent="rtz3GXls6wWq0Uho-QJ0-47">
          <mxGeometry relative="1" as="geometry">
            <mxPoint x="305.09000000000003" y="269.9234086743162" as="sourcePoint" />
            <mxPoint x="444.0900000000001" y="298.53290322580654" as="targetPoint" />
          </mxGeometry>
        </mxCell>
        <mxCell id="rtz3GXls6wWq0Uho-QJ0-44" style="edgeStyle=none;rounded=0;orthogonalLoop=1;jettySize=auto;html=1;sourcePerimeterSpacing=5;endArrow=none;endFill=0;targetPerimeterSpacing=5;strokeWidth=2;dashed=1;dashPattern=12 12;" edge="1" parent="rtz3GXls6wWq0Uho-QJ0-47">
          <mxGeometry relative="1" as="geometry">
            <mxPoint x="295.59000000000003" y="243.3572796420581" as="sourcePoint" />
            <mxPoint x="360.59000000000003" y="203.96800273136222" as="targetPoint" />
          </mxGeometry>
        </mxCell>
        <mxCell id="rtz3GXls6wWq0Uho-QJ0-45" value="" style="shape=mxgraph.cisco.misc.access_point;sketch=0;html=1;pointerEvents=1;dashed=0;fillColor=#036897;strokeColor=#ffffff;strokeWidth=2;verticalLabelPosition=bottom;verticalAlign=top;align=center;outlineConnect=0;direction=east;" vertex="1" parent="rtz3GXls6wWq0Uho-QJ0-47">
          <mxGeometry x="225" y="245.4006451612904" width="70.59000000000002" height="32.696774193548386" as="geometry" />
        </mxCell>
        <mxCell id="rtz3GXls6wWq0Uho-QJ0-103" style="edgeStyle=none;rounded=0;orthogonalLoop=1;jettySize=auto;html=1;sourcePerimeterSpacing=5;endArrow=none;endFill=0;targetPerimeterSpacing=5;" edge="1" parent="1">
          <mxGeometry relative="1" as="geometry">
            <mxPoint x="381.7500000000001" y="1209.8393548387098" as="sourcePoint" />
            <mxPoint x="421.7500000000001" y="1260.928064516129" as="targetPoint" />
          </mxGeometry>
        </mxCell>
        <mxCell id="rtz3GXls6wWq0Uho-QJ0-104" style="edgeStyle=none;rounded=0;orthogonalLoop=1;jettySize=auto;html=1;sourcePerimeterSpacing=5;endArrow=none;endFill=0;targetPerimeterSpacing=5;" edge="1" parent="1">
          <mxGeometry relative="1" as="geometry">
            <mxPoint x="346.7500000000001" y="1209.8393548387098" as="sourcePoint" />
            <mxPoint x="343.7500000000001" y="1271.145806451613" as="targetPoint" />
          </mxGeometry>
        </mxCell>
        <mxCell id="rtz3GXls6wWq0Uho-QJ0-105" style="edgeStyle=none;rounded=0;orthogonalLoop=1;jettySize=auto;html=1;sourcePerimeterSpacing=5;endArrow=none;endFill=0;targetPerimeterSpacing=5;" edge="1" parent="1">
          <mxGeometry relative="1" as="geometry">
            <mxPoint x="305.7493248175184" y="1199.621612903226" as="sourcePoint" />
            <mxPoint x="261.7500000000001" y="1240.4925806451613" as="targetPoint" />
          </mxGeometry>
        </mxCell>
        <mxCell id="rtz3GXls6wWq0Uho-QJ0-106" style="edgeStyle=none;rounded=0;orthogonalLoop=1;jettySize=auto;html=1;sourcePerimeterSpacing=5;endArrow=none;endFill=0;targetPerimeterSpacing=5;" edge="1" parent="1">
          <mxGeometry relative="1" as="geometry">
            <mxPoint x="287.7500000000001" y="1167.7525087315062" as="sourcePoint" />
            <mxPoint x="211.7500000000001" y="1189.403870967742" as="targetPoint" />
          </mxGeometry>
        </mxCell>
        <mxCell id="rtz3GXls6wWq0Uho-QJ0-107" style="edgeStyle=none;rounded=0;orthogonalLoop=1;jettySize=auto;html=1;sourcePerimeterSpacing=5;endArrow=none;endFill=0;targetPerimeterSpacing=5;" edge="1" parent="1">
          <mxGeometry relative="1" as="geometry">
            <mxPoint x="301.7500000000001" y="1140.3588925452839" as="sourcePoint" />
            <mxPoint x="241.7500000000001" y="1117.879677419355" as="targetPoint" />
          </mxGeometry>
        </mxCell>
        <mxCell id="rtz3GXls6wWq0Uho-QJ0-108" value="" style="verticalLabelPosition=bottom;sketch=0;aspect=fixed;html=1;verticalAlign=top;strokeColor=none;align=center;outlineConnect=0;shape=mxgraph.citrix.laptop_1;direction=east;" vertex="1" parent="1">
          <mxGeometry x="42.66000000000008" y="1027.0087096774196" width="59.09000000000002" height="50.000000000000014" as="geometry" />
        </mxCell>
        <mxCell id="rtz3GXls6wWq0Uho-QJ0-109" value="" style="verticalLabelPosition=bottom;sketch=0;aspect=fixed;html=1;verticalAlign=top;strokeColor=none;align=center;outlineConnect=0;shape=mxgraph.citrix.desktop;direction=east;" vertex="1" parent="1">
          <mxGeometry x="187.2600000000001" y="1252.0167741935484" width="54.490000000000016" height="60.000000000000014" as="geometry" />
        </mxCell>
        <mxCell id="rtz3GXls6wWq0Uho-QJ0-110" value="" style="verticalLabelPosition=bottom;sketch=0;aspect=fixed;html=1;verticalAlign=top;strokeColor=none;align=center;outlineConnect=0;shape=mxgraph.citrix.desktop;direction=east;" vertex="1" parent="1">
          <mxGeometry x="416.80000000000007" y="1267.2345161290323" width="49.95000000000002" height="55.000000000000014" as="geometry" />
        </mxCell>
        <mxCell id="rtz3GXls6wWq0Uho-QJ0-111" value="" style="verticalLabelPosition=bottom;sketch=0;aspect=fixed;html=1;verticalAlign=top;strokeColor=none;align=center;outlineConnect=0;shape=mxgraph.citrix.desktop;direction=east;" vertex="1" parent="1">
          <mxGeometry x="301.5100000000001" y="1282.67" width="54.490000000000016" height="60.000000000000014" as="geometry" />
        </mxCell>
        <mxCell id="rtz3GXls6wWq0Uho-QJ0-112" value="" style="verticalLabelPosition=bottom;sketch=0;aspect=fixed;html=1;verticalAlign=top;strokeColor=none;align=center;outlineConnect=0;shape=mxgraph.citrix.switch;direction=east;" vertex="1" parent="1">
          <mxGeometry x="312.2600000000001" y="1150.4503225806452" width="84.24000000000001" height="38.00000000000001" as="geometry" />
        </mxCell>
        <mxCell id="rtz3GXls6wWq0Uho-QJ0-113" value="" style="verticalLabelPosition=bottom;sketch=0;aspect=fixed;html=1;verticalAlign=top;strokeColor=none;align=center;outlineConnect=0;shape=mxgraph.citrix.printer;direction=east;" vertex="1" parent="1">
          <mxGeometry x="146.7500000000001" y="1188.4490322580646" width="50.000000000000014" height="50.000000000000014" as="geometry" />
        </mxCell>
        <mxCell id="rtz3GXls6wWq0Uho-QJ0-114" value="" style="verticalLabelPosition=bottom;sketch=0;aspect=fixed;html=1;verticalAlign=top;strokeColor=none;align=center;outlineConnect=0;shape=mxgraph.citrix.tablet_2;direction=east;" vertex="1" parent="1">
          <mxGeometry x="-25.91999999999996" y="1129.1861290322581" width="47.67000000000001" height="50.000000000000014" as="geometry" />
        </mxCell>
        <mxCell id="rtz3GXls6wWq0Uho-QJ0-115" style="edgeStyle=none;rounded=0;orthogonalLoop=1;jettySize=auto;html=1;sourcePerimeterSpacing=5;endArrow=none;endFill=0;targetPerimeterSpacing=5;dashed=1;dashPattern=12 12;strokeWidth=2;" edge="1" parent="1">
          <mxGeometry relative="1" as="geometry">
            <mxPoint x="161.66000000000008" y="1119.9234086743163" as="sourcePoint" />
            <mxPoint x="22.660000000000025" y="1148.5329032258064" as="targetPoint" />
          </mxGeometry>
        </mxCell>
        <mxCell id="rtz3GXls6wWq0Uho-QJ0-116" style="edgeStyle=none;rounded=0;orthogonalLoop=1;jettySize=auto;html=1;sourcePerimeterSpacing=5;endArrow=none;endFill=0;targetPerimeterSpacing=5;strokeWidth=2;dashed=1;dashPattern=12 12;" edge="1" parent="1">
          <mxGeometry relative="1" as="geometry">
            <mxPoint x="171.16000000000008" y="1093.357279642058" as="sourcePoint" />
            <mxPoint x="106.16000000000008" y="1053.9680027313623" as="targetPoint" />
          </mxGeometry>
        </mxCell>
        <mxCell id="rtz3GXls6wWq0Uho-QJ0-117" value="" style="shape=mxgraph.cisco.misc.access_point;sketch=0;html=1;pointerEvents=1;dashed=0;fillColor=#036897;strokeColor=#ffffff;strokeWidth=2;verticalLabelPosition=bottom;verticalAlign=top;align=center;outlineConnect=0;direction=east;" vertex="1" parent="1">
          <mxGeometry x="171.16000000000008" y="1095.4006451612904" width="70.59000000000002" height="32.696774193548386" as="geometry" />
        </mxCell>
        <mxCell id="rtz3GXls6wWq0Uho-QJ0-80" value="" style="group;direction=south;flipV=1;flipH=1;" vertex="1" connectable="0" parent="1">
          <mxGeometry x="-270" y="460.33" width="316.75" height="492.67" as="geometry" />
        </mxCell>
        <mxCell id="rtz3GXls6wWq0Uho-QJ0-89" value="" style="verticalLabelPosition=bottom;sketch=0;aspect=fixed;html=1;verticalAlign=top;strokeColor=none;align=center;outlineConnect=0;shape=mxgraph.citrix.desktop;direction=east;" vertex="1" parent="rtz3GXls6wWq0Uho-QJ0-80">
          <mxGeometry x="151.50999999999996" y="432.6700000000001" width="54.490000000000016" height="60.000000000000014" as="geometry" />
        </mxCell>
        <mxCell id="rtz3GXls6wWq0Uho-QJ0-141" value="" style="group" vertex="1" connectable="0" parent="rtz3GXls6wWq0Uho-QJ0-80">
          <mxGeometry x="-175.92000000000007" y="177.00870967741946" width="492.6700000000001" height="295.22580645161287" as="geometry" />
        </mxCell>
        <mxCell id="rtz3GXls6wWq0Uho-QJ0-81" style="edgeStyle=none;rounded=0;orthogonalLoop=1;jettySize=auto;html=1;sourcePerimeterSpacing=5;endArrow=none;endFill=0;targetPerimeterSpacing=5;" edge="1" parent="rtz3GXls6wWq0Uho-QJ0-141">
          <mxGeometry relative="1" as="geometry">
            <mxPoint x="407.6700000000001" y="182.8306451612903" as="sourcePoint" />
            <mxPoint x="447.6700000000001" y="233.91935483870964" as="targetPoint" />
          </mxGeometry>
        </mxCell>
        <mxCell id="rtz3GXls6wWq0Uho-QJ0-82" style="edgeStyle=none;rounded=0;orthogonalLoop=1;jettySize=auto;html=1;sourcePerimeterSpacing=5;endArrow=none;endFill=0;targetPerimeterSpacing=5;" edge="1" parent="rtz3GXls6wWq0Uho-QJ0-141">
          <mxGeometry relative="1" as="geometry">
            <mxPoint x="372.6700000000001" y="182.8306451612903" as="sourcePoint" />
            <mxPoint x="369.6700000000001" y="244.13709677419354" as="targetPoint" />
          </mxGeometry>
        </mxCell>
        <mxCell id="rtz3GXls6wWq0Uho-QJ0-83" style="edgeStyle=none;rounded=0;orthogonalLoop=1;jettySize=auto;html=1;sourcePerimeterSpacing=5;endArrow=none;endFill=0;targetPerimeterSpacing=5;" edge="1" parent="rtz3GXls6wWq0Uho-QJ0-141">
          <mxGeometry relative="1" as="geometry">
            <mxPoint x="331.6693248175184" y="172.61290322580646" as="sourcePoint" />
            <mxPoint x="287.6700000000001" y="213.4838709677419" as="targetPoint" />
          </mxGeometry>
        </mxCell>
        <mxCell id="rtz3GXls6wWq0Uho-QJ0-84" style="edgeStyle=none;rounded=0;orthogonalLoop=1;jettySize=auto;html=1;sourcePerimeterSpacing=5;endArrow=none;endFill=0;targetPerimeterSpacing=5;" edge="1" parent="rtz3GXls6wWq0Uho-QJ0-141">
          <mxGeometry relative="1" as="geometry">
            <mxPoint x="313.6700000000001" y="140.74379905408676" as="sourcePoint" />
            <mxPoint x="237.67000000000007" y="162.39516129032256" as="targetPoint" />
          </mxGeometry>
        </mxCell>
        <mxCell id="rtz3GXls6wWq0Uho-QJ0-85" style="edgeStyle=none;rounded=0;orthogonalLoop=1;jettySize=auto;html=1;sourcePerimeterSpacing=5;endArrow=none;endFill=0;targetPerimeterSpacing=5;" edge="1" parent="rtz3GXls6wWq0Uho-QJ0-141">
          <mxGeometry relative="1" as="geometry">
            <mxPoint x="327.6700000000001" y="113.35018286786442" as="sourcePoint" />
            <mxPoint x="267.6700000000001" y="90.87096774193549" as="targetPoint" />
          </mxGeometry>
        </mxCell>
        <mxCell id="rtz3GXls6wWq0Uho-QJ0-86" value="" style="verticalLabelPosition=bottom;sketch=0;aspect=fixed;html=1;verticalAlign=top;strokeColor=none;align=center;outlineConnect=0;shape=mxgraph.citrix.laptop_1;direction=east;" vertex="1" parent="rtz3GXls6wWq0Uho-QJ0-141">
          <mxGeometry x="68.58000000000004" width="59.09000000000002" height="50.000000000000014" as="geometry" />
        </mxCell>
        <mxCell id="rtz3GXls6wWq0Uho-QJ0-87" value="" style="verticalLabelPosition=bottom;sketch=0;aspect=fixed;html=1;verticalAlign=top;strokeColor=none;align=center;outlineConnect=0;shape=mxgraph.citrix.desktop;direction=east;" vertex="1" parent="rtz3GXls6wWq0Uho-QJ0-141">
          <mxGeometry x="213.18000000000006" y="225.00806451612897" width="54.490000000000016" height="60.000000000000014" as="geometry" />
        </mxCell>
        <mxCell id="rtz3GXls6wWq0Uho-QJ0-88" value="" style="verticalLabelPosition=bottom;sketch=0;aspect=fixed;html=1;verticalAlign=top;strokeColor=none;align=center;outlineConnect=0;shape=mxgraph.citrix.desktop;direction=east;" vertex="1" parent="rtz3GXls6wWq0Uho-QJ0-141">
          <mxGeometry x="442.72" y="240.22580645161287" width="49.95000000000002" height="55.000000000000014" as="geometry" />
        </mxCell>
        <mxCell id="rtz3GXls6wWq0Uho-QJ0-90" value="" style="verticalLabelPosition=bottom;sketch=0;aspect=fixed;html=1;verticalAlign=top;strokeColor=none;align=center;outlineConnect=0;shape=mxgraph.citrix.switch;direction=east;" vertex="1" parent="rtz3GXls6wWq0Uho-QJ0-141">
          <mxGeometry x="338.18000000000006" y="123.44161290322575" width="84.24000000000001" height="38.00000000000001" as="geometry" />
        </mxCell>
        <mxCell id="rtz3GXls6wWq0Uho-QJ0-91" value="" style="verticalLabelPosition=bottom;sketch=0;aspect=fixed;html=1;verticalAlign=top;strokeColor=none;align=center;outlineConnect=0;shape=mxgraph.citrix.printer;direction=east;" vertex="1" parent="rtz3GXls6wWq0Uho-QJ0-141">
          <mxGeometry x="172.67000000000007" y="161.4403225806451" width="50.000000000000014" height="50.000000000000014" as="geometry" />
        </mxCell>
        <mxCell id="rtz3GXls6wWq0Uho-QJ0-92" value="" style="verticalLabelPosition=bottom;sketch=0;aspect=fixed;html=1;verticalAlign=top;strokeColor=none;align=center;outlineConnect=0;shape=mxgraph.citrix.tablet_2;direction=east;" vertex="1" parent="rtz3GXls6wWq0Uho-QJ0-141">
          <mxGeometry y="102.17741935483866" width="47.67000000000001" height="50.000000000000014" as="geometry" />
        </mxCell>
        <mxCell id="rtz3GXls6wWq0Uho-QJ0-93" style="edgeStyle=none;rounded=0;orthogonalLoop=1;jettySize=auto;html=1;sourcePerimeterSpacing=5;endArrow=none;endFill=0;targetPerimeterSpacing=5;dashed=1;dashPattern=12 12;strokeWidth=2;" edge="1" parent="rtz3GXls6wWq0Uho-QJ0-141">
          <mxGeometry relative="1" as="geometry">
            <mxPoint x="187.58000000000004" y="92.91469899689673" as="sourcePoint" />
            <mxPoint x="48.579999999999984" y="121.52419354838707" as="targetPoint" />
          </mxGeometry>
        </mxCell>
        <mxCell id="rtz3GXls6wWq0Uho-QJ0-94" style="edgeStyle=none;rounded=0;orthogonalLoop=1;jettySize=auto;html=1;sourcePerimeterSpacing=5;endArrow=none;endFill=0;targetPerimeterSpacing=5;strokeWidth=2;dashed=1;dashPattern=12 12;" edge="1" parent="rtz3GXls6wWq0Uho-QJ0-141">
          <mxGeometry relative="1" as="geometry">
            <mxPoint x="197.08000000000004" y="66.34856996463864" as="sourcePoint" />
            <mxPoint x="132.08000000000004" y="26.95929305394276" as="targetPoint" />
          </mxGeometry>
        </mxCell>
        <mxCell id="rtz3GXls6wWq0Uho-QJ0-95" value="" style="shape=mxgraph.cisco.misc.access_point;sketch=0;html=1;pointerEvents=1;dashed=0;fillColor=#036897;strokeColor=#ffffff;strokeWidth=2;verticalLabelPosition=bottom;verticalAlign=top;align=center;outlineConnect=0;direction=east;" vertex="1" parent="rtz3GXls6wWq0Uho-QJ0-141">
          <mxGeometry x="197.08000000000004" y="68.39193548387095" width="70.59000000000002" height="32.696774193548386" as="geometry" />
        </mxCell>
        <mxCell id="rtz3GXls6wWq0Uho-QJ0-140" value="" style="group;fillColor=#FFCE9F;fillStyle=dots;" vertex="1" connectable="0" parent="1">
          <mxGeometry x="-560" y="103.22000000000003" width="580" height="380" as="geometry" />
        </mxCell>
        <mxCell id="rtz3GXls6wWq0Uho-QJ0-65" style="edgeStyle=none;rounded=0;orthogonalLoop=1;jettySize=auto;html=1;sourcePerimeterSpacing=5;endArrow=none;endFill=0;targetPerimeterSpacing=5;" edge="1" parent="rtz3GXls6wWq0Uho-QJ0-140">
          <mxGeometry relative="1" as="geometry">
            <mxPoint x="451.75" y="149.61064516129028" as="sourcePoint" />
            <mxPoint x="491.75" y="98.52193548387095" as="targetPoint" />
          </mxGeometry>
        </mxCell>
        <mxCell id="rtz3GXls6wWq0Uho-QJ0-66" style="edgeStyle=none;rounded=0;orthogonalLoop=1;jettySize=auto;html=1;sourcePerimeterSpacing=5;endArrow=none;endFill=0;targetPerimeterSpacing=5;" edge="1" parent="rtz3GXls6wWq0Uho-QJ0-140">
          <mxGeometry relative="1" as="geometry">
            <mxPoint x="416.75" y="149.61064516129028" as="sourcePoint" />
            <mxPoint x="413.75" y="88.30419354838705" as="targetPoint" />
          </mxGeometry>
        </mxCell>
        <mxCell id="rtz3GXls6wWq0Uho-QJ0-67" style="edgeStyle=none;rounded=0;orthogonalLoop=1;jettySize=auto;html=1;sourcePerimeterSpacing=5;endArrow=none;endFill=0;targetPerimeterSpacing=5;" edge="1" parent="rtz3GXls6wWq0Uho-QJ0-140">
          <mxGeometry relative="1" as="geometry">
            <mxPoint x="375.7493248175183" y="159.82838709677412" as="sourcePoint" />
            <mxPoint x="331.75" y="118.95741935483869" as="targetPoint" />
          </mxGeometry>
        </mxCell>
        <mxCell id="rtz3GXls6wWq0Uho-QJ0-68" style="edgeStyle=none;rounded=0;orthogonalLoop=1;jettySize=auto;html=1;sourcePerimeterSpacing=5;endArrow=none;endFill=0;targetPerimeterSpacing=5;" edge="1" parent="rtz3GXls6wWq0Uho-QJ0-140">
          <mxGeometry relative="1" as="geometry">
            <mxPoint x="357.75" y="191.69749126849382" as="sourcePoint" />
            <mxPoint x="281.75" y="170.04612903225802" as="targetPoint" />
          </mxGeometry>
        </mxCell>
        <mxCell id="rtz3GXls6wWq0Uho-QJ0-69" style="edgeStyle=none;rounded=0;orthogonalLoop=1;jettySize=auto;html=1;sourcePerimeterSpacing=5;endArrow=none;endFill=0;targetPerimeterSpacing=5;" edge="1" parent="rtz3GXls6wWq0Uho-QJ0-140">
          <mxGeometry relative="1" as="geometry">
            <mxPoint x="371.75" y="219.09110745471617" as="sourcePoint" />
            <mxPoint x="311.75" y="241.5703225806451" as="targetPoint" />
          </mxGeometry>
        </mxCell>
        <mxCell id="rtz3GXls6wWq0Uho-QJ0-70" value="" style="verticalLabelPosition=bottom;sketch=0;aspect=fixed;html=1;verticalAlign=top;strokeColor=none;align=center;outlineConnect=0;shape=mxgraph.citrix.laptop_1;direction=east;" vertex="1" parent="rtz3GXls6wWq0Uho-QJ0-140">
          <mxGeometry x="112.65999999999997" y="282.4412903225806" width="59.09000000000002" height="50.000000000000014" as="geometry" />
        </mxCell>
        <mxCell id="rtz3GXls6wWq0Uho-QJ0-71" value="" style="verticalLabelPosition=bottom;sketch=0;aspect=fixed;html=1;verticalAlign=top;strokeColor=none;align=center;outlineConnect=0;shape=mxgraph.citrix.desktop;direction=east;" vertex="1" parent="rtz3GXls6wWq0Uho-QJ0-140">
          <mxGeometry x="257.26" y="47.43322580645162" width="54.490000000000016" height="60.000000000000014" as="geometry" />
        </mxCell>
        <mxCell id="rtz3GXls6wWq0Uho-QJ0-72" value="" style="verticalLabelPosition=bottom;sketch=0;aspect=fixed;html=1;verticalAlign=top;strokeColor=none;align=center;outlineConnect=0;shape=mxgraph.citrix.desktop;direction=east;" vertex="1" parent="rtz3GXls6wWq0Uho-QJ0-140">
          <mxGeometry x="486.79999999999995" y="37.21548387096772" width="49.95000000000002" height="55.000000000000014" as="geometry" />
        </mxCell>
        <mxCell id="rtz3GXls6wWq0Uho-QJ0-73" value="" style="verticalLabelPosition=bottom;sketch=0;aspect=fixed;html=1;verticalAlign=top;strokeColor=none;align=center;outlineConnect=0;shape=mxgraph.citrix.desktop;direction=east;" vertex="1" parent="rtz3GXls6wWq0Uho-QJ0-140">
          <mxGeometry x="371.51" y="16.779999999999987" width="54.490000000000016" height="60.000000000000014" as="geometry" />
        </mxCell>
        <mxCell id="rtz3GXls6wWq0Uho-QJ0-74" value="" style="verticalLabelPosition=bottom;sketch=0;aspect=fixed;html=1;verticalAlign=top;strokeColor=none;align=center;outlineConnect=0;shape=mxgraph.citrix.switch;direction=east;" vertex="1" parent="rtz3GXls6wWq0Uho-QJ0-140">
          <mxGeometry x="382.26" y="170.99967741935484" width="84.24000000000001" height="38.00000000000001" as="geometry" />
        </mxCell>
        <mxCell id="rtz3GXls6wWq0Uho-QJ0-75" value="" style="verticalLabelPosition=bottom;sketch=0;aspect=fixed;html=1;verticalAlign=top;strokeColor=none;align=center;outlineConnect=0;shape=mxgraph.citrix.printer;direction=east;" vertex="1" parent="rtz3GXls6wWq0Uho-QJ0-140">
          <mxGeometry x="216.75" y="121.00096774193548" width="50.000000000000014" height="50.000000000000014" as="geometry" />
        </mxCell>
        <mxCell id="rtz3GXls6wWq0Uho-QJ0-76" value="" style="verticalLabelPosition=bottom;sketch=0;aspect=fixed;html=1;verticalAlign=top;strokeColor=none;align=center;outlineConnect=0;shape=mxgraph.citrix.tablet_2;direction=east;" vertex="1" parent="rtz3GXls6wWq0Uho-QJ0-140">
          <mxGeometry x="44.07999999999993" y="180.26387096774192" width="47.67000000000001" height="50.000000000000014" as="geometry" />
        </mxCell>
        <mxCell id="rtz3GXls6wWq0Uho-QJ0-77" style="edgeStyle=none;rounded=0;orthogonalLoop=1;jettySize=auto;html=1;sourcePerimeterSpacing=5;endArrow=none;endFill=0;targetPerimeterSpacing=5;dashed=1;dashPattern=12 12;strokeWidth=2;" edge="1" parent="rtz3GXls6wWq0Uho-QJ0-140">
          <mxGeometry relative="1" as="geometry">
            <mxPoint x="231.65999999999997" y="239.52659132568385" as="sourcePoint" />
            <mxPoint x="92.65999999999991" y="210.9170967741935" as="targetPoint" />
          </mxGeometry>
        </mxCell>
        <mxCell id="rtz3GXls6wWq0Uho-QJ0-78" style="edgeStyle=none;rounded=0;orthogonalLoop=1;jettySize=auto;html=1;sourcePerimeterSpacing=5;endArrow=none;endFill=0;targetPerimeterSpacing=5;strokeWidth=2;dashed=1;dashPattern=12 12;" edge="1" parent="rtz3GXls6wWq0Uho-QJ0-140">
          <mxGeometry relative="1" as="geometry">
            <mxPoint x="241.15999999999997" y="266.09272035794197" as="sourcePoint" />
            <mxPoint x="176.15999999999997" y="305.4819972686378" as="targetPoint" />
          </mxGeometry>
        </mxCell>
        <mxCell id="rtz3GXls6wWq0Uho-QJ0-79" value="" style="shape=mxgraph.cisco.misc.access_point;sketch=0;html=1;pointerEvents=1;dashed=0;fillColor=#036897;strokeColor=#ffffff;strokeWidth=2;verticalLabelPosition=bottom;verticalAlign=top;align=center;outlineConnect=0;direction=east;" vertex="1" parent="rtz3GXls6wWq0Uho-QJ0-140">
          <mxGeometry x="241.15999999999997" y="231.35258064516125" width="70.59000000000002" height="32.696774193548386" as="geometry" />
        </mxCell>
        <mxCell id="rtz3GXls6wWq0Uho-QJ0-173" value="&lt;b&gt;&lt;font style=&quot;font-size: 22px;&quot;&gt;Bureau 4&lt;/font&gt;&lt;/b&gt;" style="edgeLabel;html=1;align=center;verticalAlign=middle;resizable=0;points=[];fontSize=20;fontFamily=Architects Daughter;" vertex="1" connectable="0" parent="rtz3GXls6wWq0Uho-QJ0-140">
          <mxGeometry x="-710.002857142857" y="-303.22142697756806" as="geometry">
            <mxPoint x="808" y="384" as="offset" />
          </mxGeometry>
        </mxCell>
        <mxCell id="rtz3GXls6wWq0Uho-QJ0-147" style="edgeStyle=orthogonalEdgeStyle;rounded=1;sketch=1;hachureGap=4;jiggle=2;curveFitting=1;orthogonalLoop=1;jettySize=auto;html=1;exitX=0;exitY=1;exitDx=0;exitDy=0;exitPerimeter=0;fontFamily=Architects Daughter;fontSource=https%3A%2F%2Ffonts.googleapis.com%2Fcss%3Ffamily%3DArchitects%2BDaughter;fontSize=16;" edge="1" parent="1" source="rtz3GXls6wWq0Uho-QJ0-143" target="rtz3GXls6wWq0Uho-QJ0-90">
          <mxGeometry relative="1" as="geometry" />
        </mxCell>
        <mxCell id="rtz3GXls6wWq0Uho-QJ0-148" style="edgeStyle=orthogonalEdgeStyle;rounded=1;sketch=1;hachureGap=4;jiggle=2;curveFitting=1;orthogonalLoop=1;jettySize=auto;html=1;exitX=0.5;exitY=1;exitDx=0;exitDy=0;exitPerimeter=0;fontFamily=Architects Daughter;fontSource=https%3A%2F%2Ffonts.googleapis.com%2Fcss%3Ffamily%3DArchitects%2BDaughter;fontSize=16;" edge="1" parent="1" source="rtz3GXls6wWq0Uho-QJ0-143" target="rtz3GXls6wWq0Uho-QJ0-112">
          <mxGeometry relative="1" as="geometry" />
        </mxCell>
        <mxCell id="rtz3GXls6wWq0Uho-QJ0-149" style="edgeStyle=orthogonalEdgeStyle;rounded=1;sketch=1;hachureGap=4;jiggle=2;curveFitting=1;orthogonalLoop=1;jettySize=auto;html=1;exitX=0.95;exitY=0.94;exitDx=0;exitDy=0;exitPerimeter=0;fontFamily=Architects Daughter;fontSource=https%3A%2F%2Ffonts.googleapis.com%2Fcss%3Ffamily%3DArchitects%2BDaughter;fontSize=16;" edge="1" parent="1" source="rtz3GXls6wWq0Uho-QJ0-143" target="rtz3GXls6wWq0Uho-QJ0-40">
          <mxGeometry relative="1" as="geometry" />
        </mxCell>
        <mxCell id="rtz3GXls6wWq0Uho-QJ0-150" style="edgeStyle=orthogonalEdgeStyle;rounded=1;sketch=1;hachureGap=4;jiggle=2;curveFitting=1;orthogonalLoop=1;jettySize=auto;html=1;exitX=1;exitY=0;exitDx=0;exitDy=0;exitPerimeter=0;fontFamily=Architects Daughter;fontSource=https%3A%2F%2Ffonts.googleapis.com%2Fcss%3Ffamily%3DArchitects%2BDaughter;fontSize=16;" edge="1" parent="1" source="rtz3GXls6wWq0Uho-QJ0-143" target="rtz3GXls6wWq0Uho-QJ0-19">
          <mxGeometry relative="1" as="geometry" />
        </mxCell>
        <mxCell id="rtz3GXls6wWq0Uho-QJ0-151" style="edgeStyle=orthogonalEdgeStyle;rounded=1;sketch=1;hachureGap=4;jiggle=2;curveFitting=1;orthogonalLoop=1;jettySize=auto;html=1;exitX=0.08;exitY=0.05;exitDx=0;exitDy=0;exitPerimeter=0;fontFamily=Architects Daughter;fontSource=https%3A%2F%2Ffonts.googleapis.com%2Fcss%3Ffamily%3DArchitects%2BDaughter;fontSize=16;" edge="1" parent="1" source="rtz3GXls6wWq0Uho-QJ0-143" target="rtz3GXls6wWq0Uho-QJ0-74">
          <mxGeometry relative="1" as="geometry" />
        </mxCell>
        <mxCell id="rtz3GXls6wWq0Uho-QJ0-152" style="edgeStyle=orthogonalEdgeStyle;rounded=1;sketch=1;hachureGap=4;jiggle=2;curveFitting=1;orthogonalLoop=1;jettySize=auto;html=1;exitX=0.5;exitY=0;exitDx=0;exitDy=0;exitPerimeter=0;fontFamily=Architects Daughter;fontSource=https%3A%2F%2Ffonts.googleapis.com%2Fcss%3Ffamily%3DArchitects%2BDaughter;fontSize=16;" edge="1" parent="1" source="rtz3GXls6wWq0Uho-QJ0-143" target="rtz3GXls6wWq0Uho-QJ0-18">
          <mxGeometry relative="1" as="geometry" />
        </mxCell>
        <mxCell id="rtz3GXls6wWq0Uho-QJ0-168" value="&lt;b&gt;&lt;font style=&quot;font-size: 22px;&quot;&gt;Serveur SION&lt;/font&gt;&lt;/b&gt;" style="edgeLabel;html=1;align=center;verticalAlign=middle;resizable=0;points=[];fontSize=20;fontFamily=Architects Daughter;" vertex="1" connectable="0" parent="rtz3GXls6wWq0Uho-QJ0-152">
          <mxGeometry x="0.4057" y="56" relative="1" as="geometry">
            <mxPoint x="213" y="171" as="offset" />
          </mxGeometry>
        </mxCell>
        <mxCell id="rtz3GXls6wWq0Uho-QJ0-153" style="edgeStyle=orthogonalEdgeStyle;rounded=1;sketch=1;hachureGap=4;jiggle=2;curveFitting=1;orthogonalLoop=1;jettySize=auto;html=1;exitX=1;exitY=0.5;exitDx=0;exitDy=0;exitPerimeter=0;fontFamily=Architects Daughter;fontSource=https%3A%2F%2Ffonts.googleapis.com%2Fcss%3Ffamily%3DArchitects%2BDaughter;fontSize=16;" edge="1" parent="1" source="rtz3GXls6wWq0Uho-QJ0-143" target="rtz3GXls6wWq0Uho-QJ0-144">
          <mxGeometry relative="1" as="geometry" />
        </mxCell>
        <mxCell id="rtz3GXls6wWq0Uho-QJ0-143" value="" style="shape=mxgraph.cisco.switches.layer_3_switch;sketch=0;html=1;pointerEvents=1;dashed=0;fillColor=#036897;strokeColor=#ffffff;strokeWidth=2;verticalLabelPosition=bottom;verticalAlign=top;align=center;outlineConnect=0;rounded=1;hachureGap=4;jiggle=2;curveFitting=1;fontFamily=Architects Daughter;fontSource=https%3A%2F%2Ffonts.googleapis.com%2Fcss%3Ffamily%3DArchitects%2BDaughter;fontSize=20;" vertex="1" parent="1">
          <mxGeometry x="323.13" y="680" width="64" height="64" as="geometry" />
        </mxCell>
        <mxCell id="rtz3GXls6wWq0Uho-QJ0-144" value="" style="shape=mxgraph.cisco.servers.file_server;sketch=0;html=1;pointerEvents=1;dashed=0;fillColor=#036897;strokeColor=#ffffff;strokeWidth=2;verticalLabelPosition=bottom;verticalAlign=top;align=center;outlineConnect=0;rounded=1;hachureGap=4;jiggle=2;curveFitting=1;fontFamily=Architects Daughter;fontSource=https%3A%2F%2Ffonts.googleapis.com%2Fcss%3Ffamily%3DArchitects%2BDaughter;fontSize=20;" vertex="1" parent="1">
          <mxGeometry x="505.29" y="636" width="72.66" height="98" as="geometry" />
        </mxCell>
        <mxCell id="rtz3GXls6wWq0Uho-QJ0-155" value="" style="ellipse;whiteSpace=wrap;html=1;aspect=fixed;rounded=1;sketch=1;hachureGap=4;jiggle=2;curveFitting=1;fontFamily=Architects Daughter;fontSource=https%3A%2F%2Ffonts.googleapis.com%2Fcss%3Ffamily%3DArchitects%2BDaughter;fontSize=20;fillColor=#b1ddf0;strokeColor=#10739e;align=left;" vertex="1" parent="1">
          <mxGeometry x="1190" y="47.5" width="300" height="300" as="geometry" />
        </mxCell>
        <mxCell id="rtz3GXls6wWq0Uho-QJ0-156" value="" style="ellipse;whiteSpace=wrap;html=1;aspect=fixed;rounded=1;sketch=1;hachureGap=4;jiggle=2;curveFitting=1;fontFamily=Architects Daughter;fontSource=https%3A%2F%2Ffonts.googleapis.com%2Fcss%3Ffamily%3DArchitects%2BDaughter;fontSize=20;fillColor=#FF66B3;strokeColor=none;" vertex="1" parent="1">
          <mxGeometry x="196.75" y="310" width="220" height="220" as="geometry" />
        </mxCell>
        <mxCell id="rtz3GXls6wWq0Uho-QJ0-160" style="edgeStyle=orthogonalEdgeStyle;rounded=1;sketch=1;hachureGap=4;jiggle=2;curveFitting=1;orthogonalLoop=1;jettySize=auto;html=1;exitX=0.5;exitY=1;exitDx=0;exitDy=0;exitPerimeter=0;fontFamily=Architects Daughter;fontSource=https%3A%2F%2Ffonts.googleapis.com%2Fcss%3Ffamily%3DArchitects%2BDaughter;fontSize=16;" edge="1" parent="1" source="rtz3GXls6wWq0Uho-QJ0-158" target="rtz3GXls6wWq0Uho-QJ0-18">
          <mxGeometry relative="1" as="geometry" />
        </mxCell>
        <mxCell id="rtz3GXls6wWq0Uho-QJ0-158" value="" style="shape=mxgraph.cisco.servers.storage_server;sketch=0;html=1;pointerEvents=1;dashed=0;fillColor=#036897;strokeColor=#ffffff;strokeWidth=2;verticalLabelPosition=bottom;verticalAlign=top;align=center;outlineConnect=0;rounded=1;hachureGap=4;jiggle=2;curveFitting=1;fontFamily=Architects Daughter;fontSource=https%3A%2F%2Ffonts.googleapis.com%2Fcss%3Ffamily%3DArchitects%2BDaughter;fontSize=20;" vertex="1" parent="1">
          <mxGeometry x="258.26" y="350" width="81.74" height="120" as="geometry" />
        </mxCell>
        <mxCell id="rtz3GXls6wWq0Uho-QJ0-159" value="" style="shape=mxgraph.cisco.wireless.radio_tower;sketch=0;html=1;pointerEvents=1;dashed=0;fillColor=#e6d0de;strokeColor=#996185;strokeWidth=2;verticalLabelPosition=bottom;verticalAlign=top;align=center;outlineConnect=0;rounded=1;hachureGap=4;jiggle=2;curveFitting=1;fontFamily=Architects Daughter;fontSource=https%3A%2F%2Ffonts.googleapis.com%2Fcss%3Ffamily%3DArchitects%2BDaughter;fontSize=20;gradientColor=#000000;" vertex="1" parent="1">
          <mxGeometry x="-151.62" y="-450" width="80" height="218.38" as="geometry" />
        </mxCell>
        <mxCell id="rtz3GXls6wWq0Uho-QJ0-161" style="edgeStyle=orthogonalEdgeStyle;rounded=1;sketch=1;hachureGap=4;jiggle=2;curveFitting=1;orthogonalLoop=1;jettySize=auto;html=1;exitX=0.5;exitY=0;exitDx=0;exitDy=0;exitPerimeter=0;entryX=0.83;entryY=1;entryDx=0;entryDy=0;entryPerimeter=0;fontFamily=Architects Daughter;fontSource=https%3A%2F%2Ffonts.googleapis.com%2Fcss%3Ffamily%3DArchitects%2BDaughter;fontSize=16;" edge="1" parent="1" source="rtz3GXls6wWq0Uho-QJ0-158" target="rtz3GXls6wWq0Uho-QJ0-159">
          <mxGeometry relative="1" as="geometry">
            <Array as="points">
              <mxPoint x="299" y="-90" />
              <mxPoint x="-85" y="-90" />
            </Array>
          </mxGeometry>
        </mxCell>
        <mxCell id="rtz3GXls6wWq0Uho-QJ0-165" value="" style="curved=1;endArrow=classic;html=1;rounded=1;sketch=1;hachureGap=4;jiggle=2;curveFitting=1;fontFamily=Architects Daughter;fontSource=https%3A%2F%2Ffonts.googleapis.com%2Fcss%3Ffamily%3DArchitects%2BDaughter;fontSize=16;entryX=0.067;entryY=0.221;entryDx=0;entryDy=0;entryPerimeter=0;" edge="1" parent="1" source="rtz3GXls6wWq0Uho-QJ0-159" target="rtz3GXls6wWq0Uho-QJ0-155">
          <mxGeometry width="50" height="50" relative="1" as="geometry">
            <mxPoint x="-20" y="-300" as="sourcePoint" />
            <mxPoint x="30" y="-350" as="targetPoint" />
            <Array as="points">
              <mxPoint x="40" y="-160" />
              <mxPoint x="-20" y="-350" />
            </Array>
          </mxGeometry>
        </mxCell>
        <mxCell id="rtz3GXls6wWq0Uho-QJ0-166" value="" style="curved=1;endArrow=classic;html=1;rounded=1;sketch=1;hachureGap=4;jiggle=2;curveFitting=1;fontFamily=Architects Daughter;fontSource=https%3A%2F%2Ffonts.googleapis.com%2Fcss%3Ffamily%3DArchitects%2BDaughter;fontSize=16;entryX=0;entryY=0;entryDx=0;entryDy=0;" edge="1" parent="1" target="rtz3GXls6wWq0Uho-QJ0-155">
          <mxGeometry width="50" height="50" relative="1" as="geometry">
            <mxPoint x="-80" y="-356" as="sourcePoint" />
            <mxPoint x="209" y="-267" as="targetPoint" />
            <Array as="points">
              <mxPoint x="32" y="-223" />
              <mxPoint x="-28" y="-413" />
            </Array>
          </mxGeometry>
        </mxCell>
        <mxCell id="rtz3GXls6wWq0Uho-QJ0-169" value="&lt;b&gt;&lt;font style=&quot;font-size: 22px;&quot;&gt;Bureau 1&lt;/font&gt;&lt;/b&gt;" style="edgeLabel;html=1;align=center;verticalAlign=middle;resizable=0;points=[];fontSize=20;fontFamily=Architects Daughter;" vertex="1" connectable="0" parent="1">
          <mxGeometry x="409.9971428571431" y="849.998573022432" as="geometry">
            <mxPoint x="808" y="384" as="offset" />
          </mxGeometry>
        </mxCell>
        <mxCell id="rtz3GXls6wWq0Uho-QJ0-170" value="&lt;b&gt;&lt;font style=&quot;font-size: 22px;&quot;&gt;Bureau 2&lt;/font&gt;&lt;/b&gt;" style="edgeLabel;html=1;align=center;verticalAlign=middle;resizable=0;points=[];fontSize=20;fontFamily=Architects Daughter;" vertex="1" connectable="0" parent="1">
          <mxGeometry x="-740.0028571428569" y="909.998573022432" as="geometry">
            <mxPoint x="808" y="384" as="offset" />
          </mxGeometry>
        </mxCell>
        <mxCell id="rtz3GXls6wWq0Uho-QJ0-171" value="&lt;b&gt;&lt;font style=&quot;font-size: 22px;&quot;&gt;Bureau 3&lt;/font&gt;&lt;/b&gt;" style="edgeLabel;html=1;align=center;verticalAlign=middle;resizable=0;points=[];fontSize=20;fontFamily=Architects Daughter;" vertex="1" connectable="0" parent="1">
          <mxGeometry x="-1200.002857142857" y="509.99857302243197" as="geometry">
            <mxPoint x="808" y="384" as="offset" />
          </mxGeometry>
        </mxCell>
        <mxCell id="rtz3GXls6wWq0Uho-QJ0-172" value="&lt;b&gt;&lt;font style=&quot;font-size: 22px;&quot;&gt;Bureau 5&lt;/font&gt;&lt;/b&gt;" style="edgeLabel;html=1;align=center;verticalAlign=middle;resizable=0;points=[];fontSize=20;fontFamily=Architects Daughter;" vertex="1" connectable="0" parent="1">
          <mxGeometry x="139.9971428571431" y="-210.00142697756803" as="geometry">
            <mxPoint x="808" y="384" as="offset" />
          </mxGeometry>
        </mxCell>
        <mxCell id="rtz3GXls6wWq0Uho-QJ0-174" value="&lt;span style=&quot;font-size: 22px;&quot;&gt;&lt;b&gt;Relique Sion&lt;/b&gt;&lt;/span&gt;" style="edgeLabel;html=1;align=center;verticalAlign=middle;resizable=0;points=[];fontSize=20;fontFamily=Architects Daughter;" vertex="1" connectable="0" parent="1">
          <mxGeometry x="459.9971428571431" y="-140.00142697756803" as="geometry">
            <mxPoint x="808" y="384" as="offset" />
          </mxGeometry>
        </mxCell>
      </root>
    </mxGraphModel>
  </diagram>
</mxfile>
